# xmcd CD database file
#
# Track frame offsets:
#	150
#	19975
#	40810
#	51108
#	71605
#	88340
#	105930
#	127278
#	145655
#	163533
#	184710
#	203410
#
# Disc length: 2848 seconds
#
# Revision: 0
# Processed by: cddbd v1.5.1PL0 Copyright (c) Steve Scherf et al.
# Submitted via: CDex 1.51
#
DISCID=a20b1e0c
DTITLE=Various Artist - 青春のニューミュージック
DYEAR=2001
DGENRE=J-POP
TTITLE0=中村雅俊／恋人も濡れる街角
TTITLE1=財津和夫／サボテンの花
TTITLE2=青い三角定規／太陽がくれた季節
TTITLE3=小椋　佳／まごころの橋
TTITLE4=ゴダイゴ／ビューティフル・ネーム
TTITLE5=ゴダイゴ／モンキーマジック
TTITLE6=中西保志／最後の雨
TTITLE7=猿岩石／白い雲のように
TTITLE8=ダ・カーポ／地球へ
TTITLE9=チューリップ／ストロベリー・スマイル
TTITLE10=山下久美子／こっちをお向きよソフィア
TTITLE11=山下久美子／So Young
EXTD=YEAR: 2001
EXTT0=
EXTT1=
EXTT2=
EXTT3=
EXTT4=
EXTT5=
EXTT6=
EXTT7=
EXTT8=
EXTT9=
EXTT10=
EXTT11=
PLAYORDER=
